# xmcd CD database file
#
# Track frame offsets:
#	150
#	36347
#	67091
#	92118
#	103974
#	125053
#
# Disc length: 1863 seconds
#
# Revision: 0
# Processed by: cddbd v1.5.2PL0 Copyright (c) Steve Scherf et al.
# Submitted via: CDex 1.51
#
DISCID=5a074506
DTITLE=Rob McConnell and The Boss Brass - Again 2
DYEAR=1978
DGENRE=Jazz
TTITLE0=Tickletoe
TTITLE1=I Hear a Rhapsody
TTITLE2=Pellet Suite - No! Not Sir Henry
TTITLE3=Pellet Suite - Last Summer
TTITLE4=Pellet Suite - The Back Bacon Blues
TTITLE5=Pellet Suite - BB Gun
EXTD=YEAR: 1978
EXTT0=
EXTT1=
EXTT2=
EXTT3=
EXTT4=
EXTT5=
PLAYORDER=
